<svg width="147" height="126" viewBox="0 0 147 126" fill="none" xmlns="http://www.w3.org/2000/svg">
<path d="M84.3253 74.1903C82.2479 75.7086 81.651 75.5261 81.1226 73.2332C81.0124 72.7497 80.8151 72.2244 80.502 71.8549C79.4874 70.647 78.5129 67.9034 78.5713 66.3953C78.5826 65.9906 78.4891 65.3969 78.2189 65.1977C76.3727 63.8131 76.4645 61.6475 75.9225 59.7408C75.2632 57.415 74.6937 55.0597 73.8846 52.7929C73.284 51.1135 73.0978 49.3397 72.559 47.7089C71.8232 45.493 70.4586 43.4832 69.359 41.3781C69.2292 41.136 69.1316 40.8825 69.0364 40.6176C68.3362 38.6365 67.5624 36.6642 66.9704 34.6514C66.3603 32.5811 66.2582 30.5432 68.4791 28.8509C68.7183 30.1628 68.9328 31.362 69.1697 32.6853C69.6179 32.7176 70.3258 32.7672 71.7073 32.8595C70.7606 33.6226 70.2572 34.0339 69.7122 34.4725C70.4485 34.8212 71.1458 35.156 72.1986 35.6535C72.0023 36.2596 71.7079 37.1686 71.4367 38.0226C72.9413 37.8648 73.2497 38.6942 72.5415 41.3555C73.789 41.1091 74.6955 41.008 73.9754 42.853C73.7424 43.4336 73.0119 45.0669 74.9919 45.0428C75.2264 45.0371 75.4609 45.4982 75.6988 45.7385C75.3361 46.0471 74.9804 46.3511 74.7703 46.5293C75.9966 49.4743 77.2798 52.5507 78.6674 55.876C77.5771 56.843 78.4734 57.8111 79.7059 58.6867C79.1489 59.2425 78.7352 59.6543 78.7814 59.6039C80.0398 61.2568 81.1429 62.7043 82.3259 64.2579C81.5547 64.8656 81.0537 65.2654 80.4672 65.7314C80.8828 65.8347 81.2021 65.9123 81.7027 66.039C81.3783 66.511 81.1025 66.9212 80.6391 67.604C83.215 67.5047 83.5913 68.5276 83.1319 70.6476C82.9058 71.6903 83.8831 72.9923 84.3207 74.1834L84.3253 74.1903Z" fill="#323232"/>
<path d="M49.1654 54.0532C51.2047 54.5559 52.9326 57.0114 52.6474 58.7782C56.042 58.6556 53.4932 61.5074 54.7748 62.6683C56.2466 62.2046 57.0057 63.0249 57.5379 64.6004C57.8549 65.5333 58.8516 66.2168 59.4612 67.0662C59.8858 67.6501 60.195 68.3301 60.5227 68.9779C60.9712 69.854 60.7459 71.1543 62.2303 71.3575C62.5267 71.4004 63.028 72.2814 62.9539 72.3799C61.1028 74.603 63.2054 73.9816 64.2307 74.4675C64.7376 74.7093 64.7655 75.9718 65.0729 77.0104C66.4082 77.1231 68.2999 77.2663 65.9824 79.8664C67.2422 79.9098 68.1503 79.9467 68.9113 79.9713C69.2181 80.6627 69.4953 81.2942 69.709 81.769C68.8984 82.4523 68.1116 83.3979 67.0999 83.8364C66.6667 84.0227 65.2428 83.2335 65.1877 82.7733C64.9844 81.1995 63.988 80.4562 63.0001 79.4094C61.6784 78.0068 61.0035 76.0189 59.8898 74.3897C58.8903 72.9336 57.7062 71.5892 56.5288 70.2701C56.0191 69.6926 54.5896 69.5426 55.8558 68.3604C55.2064 67.6764 54.4416 67.0585 53.9236 66.2878C52.2648 63.8165 50.7053 61.2698 49.0696 58.7734C48.6817 58.185 48.0055 57.7768 47.6822 57.1658C46.7964 55.5056 45.9912 53.8021 45.2391 52.0737C44.8779 51.2394 44.6941 50.3279 44.4092 49.3836C45.4749 49.1776 46.4049 48.9916 47.0839 48.8618L49.9174 53.1603C49.848 53.2358 49.5403 53.5975 49.1494 54.0439L49.1654 54.0532Z" fill="#323232"/>
<path d="M28.6559 68.2191C31.1716 69.9567 33.6827 71.6874 36.2878 73.4853C36.2227 73.6275 36.0158 74.0518 36.0879 73.9051C37.7899 75.1464 39.3433 76.2076 40.7881 77.3901C40.9782 77.5429 40.636 78.3344 40.5392 78.8351C43.6956 79.4057 47.357 82.3542 46.4542 83.9522C47.7188 83.9726 49.8614 82.719 49.2879 85.5696C50.4262 85.5342 50.2578 85.6551 51.0728 86.7861C51.4175 87.2639 52.6369 87.1253 53.6317 87.2938C53.3935 87.987 53.209 88.5356 52.9218 89.3802C54.2858 88.8585 55.2577 88.1185 56.1141 90.1258C56.6456 91.384 58.7756 92.1148 60.336 92.7346C61.94 93.3752 62.0747 93.5645 60.8464 94.9699C60.4948 95.3705 60.3767 95.9746 60.0532 96.7042C57.7235 95.0227 55.1868 94.2323 53.4405 91.7789C52.201 90.0341 49.6249 89.2895 47.8065 87.8866C45.5414 86.1526 43.4824 84.1437 41.2451 82.3615C40.3452 81.644 38.7688 81.4519 38.3111 80.5918C37.4891 79.0285 36.1032 78.4626 34.8363 77.5799C32.7513 76.1342 30.5858 74.7019 28.8385 72.8947C27.9991 72.0281 28.0471 70.3083 27.6907 68.9843C28.0116 68.7331 28.3326 68.4818 28.6535 68.2305L28.6559 68.2191Z" fill="#323232"/>
<path d="M104.956 52.2208C105.01 52.8603 105.09 53.8104 105.152 54.7627C105.169 55.0594 104.967 55.4607 105.101 55.65C106.643 57.762 105.949 59.7381 104.707 61.6793C107.865 61.921 104.296 63.6477 105.415 64.2606C104.543 63.9318 103.66 63.6007 103.026 63.3629C102.661 62.432 102.221 61.6594 102.09 60.8425C101.976 60.1429 102.325 59.3767 102.276 58.6544C102.056 55.3536 101.756 52.0662 101.5 48.7698C101.318 46.5063 101.114 44.238 101.018 41.968C100.991 41.37 101.325 40.7624 101.489 40.1677C101.284 39.8562 100.67 39.3172 100.773 39.0211C101.348 37.3318 101.222 35.756 100.721 34.0611C100.35 32.8059 100.475 31.4132 100.334 30.0857C100.212 28.9054 99.6917 27.6496 99.9846 26.6026C100.2 25.815 101.419 25.2993 102.195 24.6687C102.563 25.5582 102.956 26.441 103.29 27.3533C103.516 27.9684 103.69 28.6085 103.82 29.2576C103.957 29.9022 104.089 30.5697 104.097 31.2297C104.123 33.3774 104.086 35.5364 104.076 37.8564C105.35 38.3574 105.589 41.0099 104.669 43.2447C104.694 44.728 104.707 46.2089 104.757 47.6853C104.796 49.01 104.872 50.3303 104.961 52.2277L104.956 52.2208Z" fill="#323232"/>
<path d="M122.354 47.6433C123 48.141 123.423 48.4675 123.962 48.8772L122.363 49.9313C121.8 53.3705 121.98 56.8068 119.503 59.5417C119.177 59.9056 119.637 61.0416 119.303 61.3319C118.727 61.8302 117.561 62.3806 117.107 62.1138C116.484 61.7403 115.83 60.5228 115.994 59.8684C116.844 56.5478 117.9 53.2698 119.033 50.0312C119.25 49.4115 120.141 49.0321 120.779 48.4928C118.98 46.4117 120.963 44.479 121.41 42.4762C121.768 40.88 122.73 39.4318 123.232 37.8593C123.499 37.0283 123.263 36.0521 123.419 35.1746C123.838 32.8129 124.292 30.4584 124.833 28.1158C125.346 25.8812 127.314 25.9742 128.979 25.3827C128.599 27.6686 128.623 29.8279 127.836 31.6472C127.01 33.5721 126.779 35.5415 126.215 37.3827C125.794 38.7625 125.793 40.2824 125.236 41.6522C124.482 43.52 123.97 45.4857 123.29 47.6321C123.469 47.633 123.051 47.6308 122.359 47.6203L122.354 47.6433Z" fill="#323232"/>
<path d="M54.7887 111.027C54.6331 111.319 54.5704 111.449 54.5007 111.585C53.2485 114.038 52.5607 114.095 49.8247 113.167C46.8636 112.17 43.7299 111.664 40.7292 110.772C36.7757 109.595 32.8761 108.244 28.946 106.982C28.317 106.781 27.6448 106.499 27.0054 106.523C23.6521 106.678 21.2429 104.801 18.6348 102.26C19.8183 101.947 21.1239 101.156 22.1595 101.416C24.2355 101.944 26.0981 103.249 28.1575 103.857C30.0608 104.41 32.107 104.471 34.4507 104.803C34.0915 105.327 33.8436 105.689 33.3849 106.349C34.3213 106.248 34.6482 106.172 34.9701 106.178C36.3795 106.192 37.4162 104.933 39.3066 106.656C41.1168 108.303 44.6847 108.006 47.4803 108.556C47.6985 108.601 47.9356 108.554 48.1421 108.627C50.3271 109.411 52.5097 110.206 54.7933 111.034L54.7887 111.027Z" fill="#323232"/>
</svg>
