<svg width="37" height="100" viewBox="0 0 37 100" fill="none" xmlns="http://www.w3.org/2000/svg">
<g clip-path="url(#clip0_3050_3108)">
<path d="M4.55452 85.7677C5.6047 86.332 6.68009 86.8548 7.69666 87.4689C10.2171 89.0125 13.1576 88.8465 15.8965 89.1868C17.5684 89.3943 19.4167 88.2656 20.7693 87.859C20.3577 86.9461 20.0972 86.1328 19.6435 85.4357C19.3999 85.0706 18.8538 84.7884 18.3917 84.6889C17.1315 84.415 13.3928 79.0208 13.9137 77.9005C14.359 76.9378 15.1824 75.0374 16.3334 76.1411C19.2907 78.9793 23.567 79.7677 26.2891 82.9378C27.8097 84.7055 30.0109 85.8839 31.1787 88.0167C31.54 88.6806 31.876 89.3528 32.3549 90.2739C31.0863 90.1743 30.1958 90.1079 29.2464 90.0333C29.574 92.0167 30.3302 93.8839 30.0025 95.5353C29.8009 96.5063 27.9694 97.5187 26.7008 97.8341C24.8692 98.2905 22.8697 100.008 21.1474 98.2158C20.2904 98.7967 19.4839 99.3445 18.5009 100.017C17.5936 99.5602 16.535 99.0291 15.5856 98.5561C14.5354 94.2656 19.4755 93.7345 20.5257 90.4814C20.072 90.4814 19.6603 90.3818 19.3243 90.498C17.9044 90.9959 16.577 91.0374 15.0227 90.7469C13.8633 90.5312 12.1326 90.8299 11.1665 91.137C8.42759 91.9918 7.06656 89.3777 4.78136 89.3943C4.32768 89.3943 3.8572 87.5436 3.38672 86.5478C3.78999 86.2905 4.18486 86.0333 4.58813 85.7843L4.55452 85.7677ZM27.23 86.4648C26.1631 85.9835 24.886 85.8175 24.634 85.22C23.5586 82.6391 23.273 82.4399 21.1558 83.5934C22.584 84.8299 24.0963 86.1411 25.6674 87.5021C26.0874 87.22 26.5831 86.888 27.2216 86.4565L27.23 86.4648Z" fill="#323232"/>
<path d="M4.5541 85.7676C4.15083 86.0249 3.75597 86.2821 3.3527 86.5311C2.73939 85.6514 2.00846 84.8216 1.53798 83.8755C1.0927 82.9792 0.933077 81.9419 0.60542 80.8547C1.30274 80.7386 1.97486 80.6307 2.64697 80.5228C2.62177 80.3568 2.59656 80.1908 2.57136 80.0166C2.15969 80.1079 1.73962 80.1991 1.23553 80.307C0.807055 78.8382 -0.385951 77.0124 0.118136 76.0664C1.32795 73.7842 -1.17569 71.2614 0.941478 69.2531C1.10951 69.0954 0.916274 68.556 0.874267 68.1991C0.731442 66.863 -0.478367 65.2531 1.84884 64.5726C1.6724 64.2904 1.48757 64.0083 1.25233 63.6431C1.83203 63.585 2.39493 63.5352 3.05864 63.4772C2.87381 63.0124 2.69738 62.6473 2.59656 62.2655C1.80683 59.278 3.81478 56.8216 4.22645 54.0581C4.39448 52.9626 4.68853 51.8755 4.99938 50.8133C5.15901 50.2738 5.45306 49.7593 5.75551 49.278C5.94034 48.9709 6.31841 48.7635 6.46963 48.4398C6.78889 47.7676 6.99893 47.0539 7.26777 46.3651C7.34339 46.166 7.56182 45.9751 7.54502 45.7925C7.37699 42.9211 9.42695 40.722 9.95624 37.8423C10.3847 38.1079 10.7292 38.3153 11.3593 38.7054C11.124 37.9585 10.9728 37.4606 10.8048 36.9211C11.9558 37.1452 13.0816 37.3693 14.7283 37.6846C13.5521 38.2489 12.8631 38.5809 12.0314 38.9709C12.4767 39.4523 12.9135 39.9087 13.174 40.1909C12.149 40.946 11.1576 41.668 10.1495 42.4066C10.7124 42.7967 11.1156 43.0705 11.7794 43.5352C10.788 43.3859 10.1579 43.2863 9.20011 43.1452C9.77141 44.39 10.2167 45.3693 10.6284 46.2738C9.59497 46.2738 8.79684 46.6224 9.50256 48.1743C9.57817 48.3319 8.83884 48.8796 8.44398 49.2033C8.09952 49.4855 7.69625 49.6929 6.75528 50.2987H9.22531C8.34316 51.5684 7.4274 52.4481 7.11655 53.5021C6.89811 54.2489 7.50301 55.2282 7.78026 56.2489C6.81409 56.3153 6.08317 56.3651 4.76414 56.4481C5.76391 56.9792 6.2848 57.2531 7.20896 57.7427C6.2512 58.7469 5.36904 59.668 4.42808 60.6556C4.86496 61.0539 5.36904 61.5104 6.10837 62.1826C5.15061 62.4398 4.5205 62.6058 3.64675 62.8382C4.25165 63.2863 4.63812 63.5767 5.1254 63.9336C4.73893 64.3734 4.36927 64.805 3.99121 65.2448C4.38607 65.668 4.82295 66.1494 5.26823 66.6307C5.17581 66.7386 5.08339 66.8382 4.99098 66.946C4.61291 66.7801 4.24325 66.6224 3.41151 66.2572C3.92399 66.9792 4.17604 67.3361 4.5205 67.8257C3.89879 68.0083 3.32749 68.1743 2.30251 68.473C3.13426 69.112 3.62994 69.5021 4.29366 70.0166C3.71396 70.224 3.26028 70.39 2.86541 70.5394C5.00778 72.1328 4.95737 73.1203 3.03344 75.2531C3.69715 75.8257 4.32726 76.3734 5.01618 76.9709C3.63834 77.8755 3.26028 78.1162 2.89062 78.3568C3.13426 78.6888 3.31909 79.1286 3.64675 79.3278C4.74734 79.9917 5.47826 80.4896 3.72236 81.3444C3.31909 81.5352 3.3695 82.6224 3.17627 83.4191C4.09202 83.502 4.78094 83.5601 5.83953 83.6514C5.31023 84.5311 4.92377 85.1618 4.5457 85.8008L4.5541 85.7676Z" fill="#323232"/>
<path d="M18.1648 26.7301C17.1902 24.1492 18.4253 22.3649 20.2316 20.6554C20.8953 20.0247 21.0801 18.9127 21.5506 18.0662C22.4664 16.423 23.4241 14.8048 24.3651 13.1699C24.5919 13.2612 24.8104 13.3525 25.0372 13.4438C25.2052 13.9251 25.3817 14.3981 25.3313 14.282C24.5667 16.0081 23.9786 17.3276 23.3989 18.6388C23.7686 18.7218 24.1466 18.7965 24.6507 18.9044C24.4155 20.2903 20.492 20.0994 23.2897 23.0371C21.9623 22.34 21.1977 21.9334 20.4332 21.5268C20.3072 21.6844 20.1812 21.8338 20.0635 21.9915C20.5172 22.9542 20.9709 23.9168 21.433 24.9044C20.2316 25.2363 19.7947 27.0288 18.148 26.6969L18.1648 26.7301Z" fill="#323232"/>
<path d="M18.148 26.6886C18.3916 29.228 17.9295 31.56 15.93 33.4438C15.5267 33.4189 14.9386 33.3774 14.3505 33.3359L14.2497 33.7758C14.7034 33.95 15.1487 34.1326 15.9048 34.4231C14.9638 34.9708 14.2329 35.394 12.8887 36.1741C13.2835 34.1658 13.5944 32.5558 13.9725 30.5973C14.1825 30.5807 14.8714 30.5392 15.3251 30.5061C15.6443 28.7384 15.9384 27.1534 16.2661 25.311C17.0138 25.8671 17.5851 26.2986 18.148 26.7218L18.1312 26.6886H18.148Z" fill="#323232"/>
<path d="M32.53 6.34855H33.5718L33.5129 6.94606C32.9248 6.82158 32.3283 6.6971 31.7402 6.57261C31.8747 6.09129 31.8831 5.52697 32.1603 5.15353C33.4625 3.41079 34.8404 1.71784 36.1846 0C36.4619 0.174274 36.7307 0.356846 37.0079 0.53112C36.5711 1.40249 36.1258 2.28216 35.6553 3.21162C35.8401 3.38589 36.2266 3.74274 36.6047 4.10788C36.1174 4.13278 35.5629 4.0249 35.1596 4.21577C34.1599 4.6805 33.2357 5.28631 32.2779 5.83402C32.3619 6 32.446 6.17427 32.5384 6.34025L32.53 6.34855Z" fill="#323232"/>
<path d="M27.6411 9.35278C27.8007 10.332 28.0108 11.1287 28.0192 11.9171C28.0192 12.5063 27.7587 13.0955 27.5319 14.0416C27.5067 14.0167 27.8259 14.3569 28.2628 14.8383C27.8091 15.0042 27.4983 15.2449 27.2967 15.1702C25.4315 14.5146 26.4817 13.0208 26.5237 11.942C26.5657 11.1038 27.2042 10.2905 27.6327 9.35278H27.6411Z" fill="#323232"/>
<path d="M28.1113 10.6392C28.7246 9.46905 29.3379 8.29893 30.1781 6.70557C32.1776 9.7927 29.5228 9.87569 28.8002 10.9877C28.5734 10.8715 28.3466 10.7471 28.1197 10.6309L28.1113 10.6392Z" fill="#323232"/>
</g>
<defs>
<clipPath id="clip0_3050_3108">
<rect width="37" height="100" fill="white"/>
</clipPath>
</defs>
</svg>
